<mxfile host="app.diagrams.net" agent="Mozilla/5.0 (Macintosh; Intel Mac OS X 10_15_7) AppleWebKit/605.1.15 (KHTML, like Gecko) Version/16.3 Safari/605.1.15" version="24.7.12">
  <diagram name="Page-1" id="bAWNuwk2mVDMqg9bGHkL">
    <mxGraphModel dx="1122" dy="706" grid="0" gridSize="10" guides="1" tooltips="1" connect="1" arrows="1" fold="1" page="1" pageScale="1" pageWidth="850" pageHeight="1100" math="0" shadow="0">
      <root>
        <mxCell id="0" />
        <mxCell id="1" parent="0" />
        <mxCell id="Ar0c8oPVUMQDSsYsdo-V-5" value="USB &amp;nbsp;Port" style="rounded=1;whiteSpace=wrap;html=1;" parent="1" vertex="1">
          <mxGeometry x="3" y="256.25" width="77" height="60" as="geometry" />
        </mxCell>
        <mxCell id="Ar0c8oPVUMQDSsYsdo-V-7" value="CP2102&lt;div&gt;USB-UART&lt;/div&gt;" style="rounded=1;whiteSpace=wrap;html=1;" parent="1" vertex="1">
          <mxGeometry x="190" y="251.88" width="60" height="68.75" as="geometry" />
        </mxCell>
        <mxCell id="Ar0c8oPVUMQDSsYsdo-V-61" style="edgeStyle=orthogonalEdgeStyle;rounded=0;orthogonalLoop=1;jettySize=auto;html=1;exitX=0.25;exitY=1;exitDx=0;exitDy=0;shape=flexArrow;strokeColor=#000000;fillColor=#007FFF;" parent="1" source="Ar0c8oPVUMQDSsYsdo-V-8" edge="1">
          <mxGeometry relative="1" as="geometry">
            <mxPoint x="170" y="500" as="targetPoint" />
            <mxPoint x="387.5" y="380" as="sourcePoint" />
            <Array as="points">
              <mxPoint x="388" y="400" />
              <mxPoint x="170" y="400" />
            </Array>
          </mxGeometry>
        </mxCell>
        <mxCell id="Ar0c8oPVUMQDSsYsdo-V-99" style="edgeStyle=orthogonalEdgeStyle;rounded=0;orthogonalLoop=1;jettySize=auto;html=1;exitX=0.25;exitY=0;exitDx=0;exitDy=0;shape=flexArrow;fillColor=#007FFF;" parent="1" source="Ar0c8oPVUMQDSsYsdo-V-8" target="Ar0c8oPVUMQDSsYsdo-V-97" edge="1">
          <mxGeometry relative="1" as="geometry">
            <Array as="points">
              <mxPoint x="382" y="210" />
            </Array>
          </mxGeometry>
        </mxCell>
        <mxCell id="Ar0c8oPVUMQDSsYsdo-V-102" style="edgeStyle=orthogonalEdgeStyle;rounded=0;orthogonalLoop=1;jettySize=auto;html=1;exitX=0.817;exitY=0.007;exitDx=0;exitDy=0;entryX=0.5;entryY=1;entryDx=0;entryDy=0;shape=flexArrow;exitPerimeter=0;fillColor=#007FFF;" parent="1" source="Ar0c8oPVUMQDSsYsdo-V-8" target="Ar0c8oPVUMQDSsYsdo-V-100" edge="1">
          <mxGeometry relative="1" as="geometry" />
        </mxCell>
        <mxCell id="ZkNK1JgyBZcpypqjev8R-13" style="edgeStyle=orthogonalEdgeStyle;rounded=0;orthogonalLoop=1;jettySize=auto;html=1;exitX=1;exitY=0.75;exitDx=0;exitDy=0;entryX=0;entryY=0.5;entryDx=0;entryDy=0;dashed=1;dashPattern=8 8;fillColor=#ffe6cc;strokeColor=#d79b00;" parent="1" source="Ar0c8oPVUMQDSsYsdo-V-8" target="ZkNK1JgyBZcpypqjev8R-6" edge="1">
          <mxGeometry relative="1" as="geometry">
            <Array as="points">
              <mxPoint x="531" y="324" />
              <mxPoint x="531" y="553" />
            </Array>
          </mxGeometry>
        </mxCell>
        <mxCell id="Ar0c8oPVUMQDSsYsdo-V-8" value="ESP32-S3-MINI-1-N8&lt;div&gt;&lt;br&gt;&lt;/div&gt;&lt;div&gt;355mA@3V3&lt;/div&gt;" style="rounded=1;whiteSpace=wrap;html=1;" parent="1" vertex="1">
          <mxGeometry x="350" y="210" width="150" height="152.5" as="geometry" />
        </mxCell>
        <mxCell id="Ar0c8oPVUMQDSsYsdo-V-9" value="External Flash&lt;div&gt;SD Card Holder&lt;/div&gt;&lt;div&gt;&lt;br&gt;&lt;/div&gt;&lt;div&gt;200mA@3V3&lt;/div&gt;" style="rounded=1;whiteSpace=wrap;html=1;" parent="1" vertex="1">
          <mxGeometry x="727" y="225" width="120" height="122.5" as="geometry" />
        </mxCell>
        <mxCell id="Ar0c8oPVUMQDSsYsdo-V-10" value="Wave-Core1262-HF&lt;div&gt;&lt;br&gt;&lt;/div&gt;&lt;div&gt;120mA@3V3&lt;/div&gt;" style="rounded=1;whiteSpace=wrap;html=1;" parent="1" vertex="1">
          <mxGeometry x="555" y="225" width="120" height="122.5" as="geometry" />
        </mxCell>
        <mxCell id="Ar0c8oPVUMQDSsYsdo-V-105" style="edgeStyle=orthogonalEdgeStyle;rounded=0;orthogonalLoop=1;jettySize=auto;html=1;exitX=1;exitY=0;exitDx=0;exitDy=15;exitPerimeter=0;entryX=0;entryY=0.5;entryDx=0;entryDy=0;dashed=1;dashPattern=8 8;strokeColor=#FF0000;" parent="1" source="Ar0c8oPVUMQDSsYsdo-V-11" target="Ar0c8oPVUMQDSsYsdo-V-21" edge="1">
          <mxGeometry relative="1" as="geometry">
            <mxPoint x="259.9565217391305" y="530.4347826086957" as="targetPoint" />
            <Array as="points">
              <mxPoint x="261" y="652" />
              <mxPoint x="261" y="502" />
            </Array>
          </mxGeometry>
        </mxCell>
        <mxCell id="Ar0c8oPVUMQDSsYsdo-V-11" value="" style="shape=cylinder3;whiteSpace=wrap;html=1;boundedLbl=1;backgroundOutline=1;size=15;" parent="1" vertex="1">
          <mxGeometry x="200" y="637" width="60" height="80" as="geometry" />
        </mxCell>
        <mxCell id="Ar0c8oPVUMQDSsYsdo-V-13" value="Charge Controller" style="rounded=1;whiteSpace=wrap;html=1;" parent="1" vertex="1">
          <mxGeometry x="2" y="448" width="76" height="107" as="geometry" />
        </mxCell>
        <mxCell id="Ar0c8oPVUMQDSsYsdo-V-14" value="" style="shape=flexArrow;endArrow=classic;startArrow=classic;html=1;rounded=0;entryX=0;entryY=0.5;entryDx=0;entryDy=0;fillColor=#007FFF;" parent="1" target="Ar0c8oPVUMQDSsYsdo-V-7" edge="1">
          <mxGeometry width="100" height="100" relative="1" as="geometry">
            <mxPoint x="80" y="286" as="sourcePoint" />
            <mxPoint x="180" y="285.65999999999997" as="targetPoint" />
            <Array as="points">
              <mxPoint x="120" y="285.65999999999997" />
            </Array>
          </mxGeometry>
        </mxCell>
        <mxCell id="Ar0c8oPVUMQDSsYsdo-V-16" value="" style="shape=flexArrow;endArrow=classic;startArrow=classic;html=1;rounded=0;exitX=1;exitY=0.5;exitDx=0;exitDy=0;fillColor=#007FFF;" parent="1" source="Ar0c8oPVUMQDSsYsdo-V-7" edge="1">
          <mxGeometry width="100" height="100" relative="1" as="geometry">
            <mxPoint x="260" y="286" as="sourcePoint" />
            <mxPoint x="350" y="285.65999999999997" as="targetPoint" />
          </mxGeometry>
        </mxCell>
        <mxCell id="Ar0c8oPVUMQDSsYsdo-V-17" value="D+/D-" style="text;html=1;align=center;verticalAlign=middle;whiteSpace=wrap;rounded=0;" parent="1" vertex="1">
          <mxGeometry x="110" y="250" width="60" height="30" as="geometry" />
        </mxCell>
        <mxCell id="Ar0c8oPVUMQDSsYsdo-V-18" value="TX/RX" style="text;html=1;align=center;verticalAlign=middle;whiteSpace=wrap;rounded=0;" parent="1" vertex="1">
          <mxGeometry x="270" y="250" width="60" height="30" as="geometry" />
        </mxCell>
        <mxCell id="Ar0c8oPVUMQDSsYsdo-V-19" value="" style="shape=flexArrow;endArrow=classic;html=1;rounded=0;entryX=0.5;entryY=0;entryDx=0;entryDy=0;fillColor=#FF0000;" parent="1" target="Ar0c8oPVUMQDSsYsdo-V-13" edge="1">
          <mxGeometry width="50" height="50" relative="1" as="geometry">
            <mxPoint x="40" y="316.25" as="sourcePoint" />
            <mxPoint x="20" y="426.25" as="targetPoint" />
          </mxGeometry>
        </mxCell>
        <mxCell id="Ar0c8oPVUMQDSsYsdo-V-20" value="VCC" style="text;html=1;align=center;verticalAlign=middle;whiteSpace=wrap;rounded=0;" parent="1" vertex="1">
          <mxGeometry x="40" y="362.5" width="60" height="30" as="geometry" />
        </mxCell>
        <mxCell id="Ar0c8oPVUMQDSsYsdo-V-29" style="edgeStyle=orthogonalEdgeStyle;rounded=0;orthogonalLoop=1;jettySize=auto;html=1;exitX=0.5;exitY=0;exitDx=0;exitDy=0;entryX=0.5;entryY=1;entryDx=0;entryDy=0;shape=flexArrow;fillColor=#FF0000;" parent="1" source="Ar0c8oPVUMQDSsYsdo-V-21" target="Ar0c8oPVUMQDSsYsdo-V-8" edge="1">
          <mxGeometry relative="1" as="geometry" />
        </mxCell>
        <mxCell id="Ar0c8oPVUMQDSsYsdo-V-21" value="Voltage Regulator&lt;div&gt;LDO&lt;/div&gt;" style="rounded=1;whiteSpace=wrap;html=1;" parent="1" vertex="1">
          <mxGeometry x="375" y="450" width="100" height="105" as="geometry" />
        </mxCell>
        <mxCell id="Ar0c8oPVUMQDSsYsdo-V-30" value="3V3" style="text;html=1;align=center;verticalAlign=middle;whiteSpace=wrap;rounded=0;" parent="1" vertex="1">
          <mxGeometry x="420" y="400" width="60" height="30" as="geometry" />
        </mxCell>
        <mxCell id="Ar0c8oPVUMQDSsYsdo-V-34" value="SPI Bus" style="text;html=1;align=center;verticalAlign=middle;whiteSpace=wrap;rounded=0;" parent="1" vertex="1">
          <mxGeometry x="500" y="240" width="60" height="30" as="geometry" />
        </mxCell>
        <mxCell id="Ar0c8oPVUMQDSsYsdo-V-35" value="SPI Bus" style="text;html=1;align=center;verticalAlign=middle;whiteSpace=wrap;rounded=0;" parent="1" vertex="1">
          <mxGeometry x="671" y="242" width="60" height="30" as="geometry" />
        </mxCell>
        <mxCell id="Ar0c8oPVUMQDSsYsdo-V-36" value="&lt;h1 style=&quot;margin-top: 0px;&quot;&gt;Repeater Module Block Diagram&lt;/h1&gt;" style="text;html=1;whiteSpace=wrap;overflow=hidden;rounded=0;" parent="1" vertex="1">
          <mxGeometry x="10" y="72" width="480" height="50" as="geometry" />
        </mxCell>
        <mxCell id="Ar0c8oPVUMQDSsYsdo-V-38" value="Battery Bank&lt;div&gt;18650 lithium&lt;/div&gt;" style="text;html=1;align=center;verticalAlign=middle;whiteSpace=wrap;rounded=0;" parent="1" vertex="1">
          <mxGeometry x="170" y="730" width="120" height="40" as="geometry" />
        </mxCell>
        <mxCell id="Ar0c8oPVUMQDSsYsdo-V-57" style="edgeStyle=orthogonalEdgeStyle;rounded=0;orthogonalLoop=1;jettySize=auto;html=1;exitX=0.5;exitY=0;exitDx=0;exitDy=0;entryX=0.5;entryY=1;entryDx=0;entryDy=0;dashed=1;dashPattern=8 8;strokeColor=#FF0000;" parent="1" source="Ar0c8oPVUMQDSsYsdo-V-40" target="Ar0c8oPVUMQDSsYsdo-V-13" edge="1">
          <mxGeometry relative="1" as="geometry" />
        </mxCell>
        <mxCell id="Ar0c8oPVUMQDSsYsdo-V-40" value="" style="shape=table;startSize=0;container=1;collapsible=0;childLayout=tableLayout;fontSize=16;" parent="1" vertex="1">
          <mxGeometry x="10" y="618" width="120" height="108.79999999999995" as="geometry" />
        </mxCell>
        <mxCell id="Ar0c8oPVUMQDSsYsdo-V-41" value="" style="shape=tableRow;horizontal=0;startSize=0;swimlaneHead=0;swimlaneBody=0;strokeColor=inherit;top=0;left=0;bottom=0;right=0;collapsible=0;dropTarget=0;fillColor=none;points=[[0,0.5],[1,0.5]];portConstraint=eastwest;fontSize=16;" parent="Ar0c8oPVUMQDSsYsdo-V-40" vertex="1">
          <mxGeometry width="120" height="40" as="geometry" />
        </mxCell>
        <mxCell id="Ar0c8oPVUMQDSsYsdo-V-42" value="" style="shape=partialRectangle;html=1;whiteSpace=wrap;connectable=0;strokeColor=inherit;overflow=hidden;fillColor=none;top=0;left=0;bottom=0;right=0;pointerEvents=1;fontSize=16;" parent="Ar0c8oPVUMQDSsYsdo-V-41" vertex="1">
          <mxGeometry width="40" height="40" as="geometry">
            <mxRectangle width="40" height="40" as="alternateBounds" />
          </mxGeometry>
        </mxCell>
        <mxCell id="Ar0c8oPVUMQDSsYsdo-V-43" value="" style="shape=partialRectangle;html=1;whiteSpace=wrap;connectable=0;strokeColor=inherit;overflow=hidden;fillColor=none;top=0;left=0;bottom=0;right=0;pointerEvents=1;fontSize=16;" parent="Ar0c8oPVUMQDSsYsdo-V-41" vertex="1">
          <mxGeometry x="40" width="40" height="40" as="geometry">
            <mxRectangle width="40" height="40" as="alternateBounds" />
          </mxGeometry>
        </mxCell>
        <mxCell id="Ar0c8oPVUMQDSsYsdo-V-44" value="" style="shape=partialRectangle;html=1;whiteSpace=wrap;connectable=0;strokeColor=inherit;overflow=hidden;fillColor=none;top=0;left=0;bottom=0;right=0;pointerEvents=1;fontSize=16;" parent="Ar0c8oPVUMQDSsYsdo-V-41" vertex="1">
          <mxGeometry x="80" width="40" height="40" as="geometry">
            <mxRectangle width="40" height="40" as="alternateBounds" />
          </mxGeometry>
        </mxCell>
        <mxCell id="Ar0c8oPVUMQDSsYsdo-V-45" value="" style="shape=tableRow;horizontal=0;startSize=0;swimlaneHead=0;swimlaneBody=0;strokeColor=inherit;top=0;left=0;bottom=0;right=0;collapsible=0;dropTarget=0;fillColor=none;points=[[0,0.5],[1,0.5]];portConstraint=eastwest;fontSize=16;" parent="Ar0c8oPVUMQDSsYsdo-V-40" vertex="1">
          <mxGeometry y="40" width="120" height="34" as="geometry" />
        </mxCell>
        <mxCell id="Ar0c8oPVUMQDSsYsdo-V-46" value="" style="shape=partialRectangle;html=1;whiteSpace=wrap;connectable=0;strokeColor=inherit;overflow=hidden;fillColor=none;top=0;left=0;bottom=0;right=0;pointerEvents=1;fontSize=16;" parent="Ar0c8oPVUMQDSsYsdo-V-45" vertex="1">
          <mxGeometry width="40" height="34" as="geometry">
            <mxRectangle width="40" height="34" as="alternateBounds" />
          </mxGeometry>
        </mxCell>
        <mxCell id="Ar0c8oPVUMQDSsYsdo-V-47" value="" style="shape=partialRectangle;html=1;whiteSpace=wrap;connectable=0;strokeColor=inherit;overflow=hidden;fillColor=none;top=0;left=0;bottom=0;right=0;pointerEvents=1;fontSize=16;" parent="Ar0c8oPVUMQDSsYsdo-V-45" vertex="1">
          <mxGeometry x="40" width="40" height="34" as="geometry">
            <mxRectangle width="40" height="34" as="alternateBounds" />
          </mxGeometry>
        </mxCell>
        <mxCell id="Ar0c8oPVUMQDSsYsdo-V-48" value="" style="shape=partialRectangle;html=1;whiteSpace=wrap;connectable=0;strokeColor=inherit;overflow=hidden;fillColor=none;top=0;left=0;bottom=0;right=0;pointerEvents=1;fontSize=16;" parent="Ar0c8oPVUMQDSsYsdo-V-45" vertex="1">
          <mxGeometry x="80" width="40" height="34" as="geometry">
            <mxRectangle width="40" height="34" as="alternateBounds" />
          </mxGeometry>
        </mxCell>
        <mxCell id="Ar0c8oPVUMQDSsYsdo-V-49" value="" style="shape=tableRow;horizontal=0;startSize=0;swimlaneHead=0;swimlaneBody=0;strokeColor=inherit;top=0;left=0;bottom=0;right=0;collapsible=0;dropTarget=0;fillColor=none;points=[[0,0.5],[1,0.5]];portConstraint=eastwest;fontSize=16;" parent="Ar0c8oPVUMQDSsYsdo-V-40" vertex="1">
          <mxGeometry y="74" width="120" height="35" as="geometry" />
        </mxCell>
        <mxCell id="Ar0c8oPVUMQDSsYsdo-V-50" value="" style="shape=partialRectangle;html=1;whiteSpace=wrap;connectable=0;strokeColor=inherit;overflow=hidden;fillColor=none;top=0;left=0;bottom=0;right=0;pointerEvents=1;fontSize=16;" parent="Ar0c8oPVUMQDSsYsdo-V-49" vertex="1">
          <mxGeometry width="40" height="35" as="geometry">
            <mxRectangle width="40" height="35" as="alternateBounds" />
          </mxGeometry>
        </mxCell>
        <mxCell id="Ar0c8oPVUMQDSsYsdo-V-51" value="" style="shape=partialRectangle;html=1;whiteSpace=wrap;connectable=0;strokeColor=inherit;overflow=hidden;fillColor=none;top=0;left=0;bottom=0;right=0;pointerEvents=1;fontSize=16;" parent="Ar0c8oPVUMQDSsYsdo-V-49" vertex="1">
          <mxGeometry x="40" width="40" height="35" as="geometry">
            <mxRectangle width="40" height="35" as="alternateBounds" />
          </mxGeometry>
        </mxCell>
        <mxCell id="Ar0c8oPVUMQDSsYsdo-V-52" value="" style="shape=partialRectangle;html=1;whiteSpace=wrap;connectable=0;strokeColor=inherit;overflow=hidden;fillColor=none;top=0;left=0;bottom=0;right=0;pointerEvents=1;fontSize=16;" parent="Ar0c8oPVUMQDSsYsdo-V-49" vertex="1">
          <mxGeometry x="80" width="40" height="35" as="geometry">
            <mxRectangle width="40" height="35" as="alternateBounds" />
          </mxGeometry>
        </mxCell>
        <mxCell id="Ar0c8oPVUMQDSsYsdo-V-53" value="" style="endArrow=classic;html=1;rounded=0;dashed=1;dashPattern=8 8;strokeColor=#FF0000;exitX=1;exitY=0.5;exitDx=0;exitDy=0;" parent="1" source="Ar0c8oPVUMQDSsYsdo-V-13" edge="1">
          <mxGeometry width="50" height="50" relative="1" as="geometry">
            <mxPoint x="90" y="500" as="sourcePoint" />
            <mxPoint x="200" y="650" as="targetPoint" />
            <Array as="points">
              <mxPoint x="200" y="500" />
            </Array>
          </mxGeometry>
        </mxCell>
        <mxCell id="Ar0c8oPVUMQDSsYsdo-V-55" value="Solar Panel" style="text;html=1;align=center;verticalAlign=middle;whiteSpace=wrap;rounded=0;" parent="1" vertex="1">
          <mxGeometry x="10" y="730" width="120" height="40" as="geometry" />
        </mxCell>
        <mxCell id="Ar0c8oPVUMQDSsYsdo-V-60" value="Indicator LED" style="text;html=1;align=center;verticalAlign=middle;whiteSpace=wrap;rounded=0;fillColor=default;" parent="1" vertex="1">
          <mxGeometry x="310" y="150" width="60" height="30" as="geometry" />
        </mxCell>
        <mxCell id="Ar0c8oPVUMQDSsYsdo-V-69" style="edgeStyle=orthogonalEdgeStyle;rounded=0;orthogonalLoop=1;jettySize=auto;html=1;exitX=0.5;exitY=1;exitDx=0;exitDy=0;exitPerimeter=0;dashed=1;dashPattern=8 8;strokeColor=#006600;" parent="1" source="Ar0c8oPVUMQDSsYsdo-V-62" edge="1">
          <mxGeometry relative="1" as="geometry">
            <mxPoint x="762" y="460" as="targetPoint" />
            <Array as="points">
              <mxPoint x="620" y="460" />
            </Array>
          </mxGeometry>
        </mxCell>
        <mxCell id="Ar0c8oPVUMQDSsYsdo-V-70" value="COAX" style="edgeLabel;html=1;align=center;verticalAlign=middle;resizable=0;points=[];" parent="Ar0c8oPVUMQDSsYsdo-V-69" vertex="1" connectable="0">
          <mxGeometry x="0.1708" relative="1" as="geometry">
            <mxPoint x="-18" y="-10" as="offset" />
          </mxGeometry>
        </mxCell>
        <mxCell id="Ar0c8oPVUMQDSsYsdo-V-62" value="" style="shape=cylinder3;whiteSpace=wrap;html=1;boundedLbl=1;backgroundOutline=1;size=15;" parent="1" vertex="1">
          <mxGeometry x="605" y="390" width="20" height="50" as="geometry" />
        </mxCell>
        <mxCell id="Ar0c8oPVUMQDSsYsdo-V-64" value="SMA &amp;nbsp;Connector" style="text;html=1;align=center;verticalAlign=middle;whiteSpace=wrap;rounded=0;" parent="1" vertex="1">
          <mxGeometry x="640" y="400" width="60" height="30" as="geometry" />
        </mxCell>
        <mxCell id="Ar0c8oPVUMQDSsYsdo-V-65" value="Battery Voltage Measurement Pin" style="text;html=1;align=center;verticalAlign=middle;whiteSpace=wrap;rounded=0;" parent="1" vertex="1">
          <mxGeometry x="220" y="360" width="110" height="30" as="geometry" />
        </mxCell>
        <mxCell id="Ar0c8oPVUMQDSsYsdo-V-67" style="edgeStyle=orthogonalEdgeStyle;rounded=0;orthogonalLoop=1;jettySize=auto;html=1;exitX=0.5;exitY=1;exitDx=0;exitDy=0;entryX=0.5;entryY=0;entryDx=0;entryDy=0;entryPerimeter=0;fillColor=#d5e8d4;dashed=1;dashPattern=8 8;strokeColor=#82b366;" parent="1" source="Ar0c8oPVUMQDSsYsdo-V-10" target="Ar0c8oPVUMQDSsYsdo-V-62" edge="1">
          <mxGeometry relative="1" as="geometry" />
        </mxCell>
        <mxCell id="Ar0c8oPVUMQDSsYsdo-V-68" value="" style="shape=mxgraph.arrows2.wedgeArrowDashed2;html=1;bendable=0;startWidth=50;stepSize=15;rounded=0;" parent="1" edge="1">
          <mxGeometry width="100" height="100" relative="1" as="geometry">
            <mxPoint x="762" y="458" as="sourcePoint" />
            <mxPoint x="842" y="458" as="targetPoint" />
          </mxGeometry>
        </mxCell>
        <mxCell id="Ar0c8oPVUMQDSsYsdo-V-71" value="Yagi Antenna" style="text;html=1;align=center;verticalAlign=middle;whiteSpace=wrap;rounded=0;" parent="1" vertex="1">
          <mxGeometry x="747" y="513" width="100" height="30" as="geometry" />
        </mxCell>
        <mxCell id="Ar0c8oPVUMQDSsYsdo-V-72" value="" style="shape=flexArrow;endArrow=classic;html=1;rounded=0;" parent="1" edge="1">
          <mxGeometry width="50" height="50" relative="1" as="geometry">
            <mxPoint x="446" y="665" as="sourcePoint" />
            <mxPoint x="576" y="665" as="targetPoint" />
          </mxGeometry>
        </mxCell>
        <mxCell id="Ar0c8oPVUMQDSsYsdo-V-74" value="On-Board Connection&lt;div&gt;&lt;br&gt;&lt;/div&gt;" style="text;html=1;align=center;verticalAlign=middle;whiteSpace=wrap;rounded=0;" parent="1" vertex="1">
          <mxGeometry x="475" y="685" width="60" height="30" as="geometry" />
        </mxCell>
        <mxCell id="Ar0c8oPVUMQDSsYsdo-V-75" value="" style="endArrow=classic;html=1;rounded=0;dashed=1;dashPattern=8 8;" parent="1" edge="1">
          <mxGeometry width="50" height="50" relative="1" as="geometry">
            <mxPoint x="606" y="665" as="sourcePoint" />
            <mxPoint x="706" y="665" as="targetPoint" />
          </mxGeometry>
        </mxCell>
        <mxCell id="Ar0c8oPVUMQDSsYsdo-V-76" value="External Connection" style="text;html=1;align=center;verticalAlign=middle;whiteSpace=wrap;rounded=0;" parent="1" vertex="1">
          <mxGeometry x="625" y="680" width="60" height="30" as="geometry" />
        </mxCell>
        <mxCell id="Ar0c8oPVUMQDSsYsdo-V-79" value="" style="shape=flexArrow;endArrow=classic;startArrow=classic;html=1;rounded=0;entryX=0;entryY=0.5;entryDx=0;entryDy=0;exitX=1;exitY=0.5;exitDx=0;exitDy=0;strokeColor=default;fillColor=#007FFF;" parent="1" source="Ar0c8oPVUMQDSsYsdo-V-8" target="Ar0c8oPVUMQDSsYsdo-V-10" edge="1">
          <mxGeometry width="100" height="100" relative="1" as="geometry">
            <mxPoint x="440" y="410" as="sourcePoint" />
            <mxPoint x="540" y="310" as="targetPoint" />
          </mxGeometry>
        </mxCell>
        <mxCell id="Ar0c8oPVUMQDSsYsdo-V-80" value="" style="shape=flexArrow;endArrow=classic;startArrow=classic;html=1;rounded=0;entryX=0;entryY=0.5;entryDx=0;entryDy=0;exitX=1;exitY=0.5;exitDx=0;exitDy=0;strokeColor=default;fillColor=#007FFF;" parent="1" source="Ar0c8oPVUMQDSsYsdo-V-10" target="Ar0c8oPVUMQDSsYsdo-V-9" edge="1">
          <mxGeometry width="100" height="100" relative="1" as="geometry">
            <mxPoint x="340" y="420" as="sourcePoint" />
            <mxPoint x="440" y="320" as="targetPoint" />
          </mxGeometry>
        </mxCell>
        <mxCell id="Ar0c8oPVUMQDSsYsdo-V-81" value="" style="rounded=0;whiteSpace=wrap;html=1;fillColor=#FF0000;" parent="1" vertex="1">
          <mxGeometry x="747" y="615" width="30" height="20" as="geometry" />
        </mxCell>
        <mxCell id="Ar0c8oPVUMQDSsYsdo-V-82" value="" style="rounded=0;whiteSpace=wrap;html=1;fillColor=#007FFF;" parent="1" vertex="1">
          <mxGeometry x="747" y="653" width="30" height="20" as="geometry" />
        </mxCell>
        <mxCell id="Ar0c8oPVUMQDSsYsdo-V-83" value="" style="rounded=0;whiteSpace=wrap;html=1;fillColor=#006600;" parent="1" vertex="1">
          <mxGeometry x="747" y="692" width="30" height="20" as="geometry" />
        </mxCell>
        <mxCell id="Ar0c8oPVUMQDSsYsdo-V-84" value="Power" style="text;html=1;align=center;verticalAlign=middle;whiteSpace=wrap;rounded=0;" parent="1" vertex="1">
          <mxGeometry x="767" y="610" width="60" height="30" as="geometry" />
        </mxCell>
        <mxCell id="Ar0c8oPVUMQDSsYsdo-V-85" value="Data" style="text;html=1;align=center;verticalAlign=middle;whiteSpace=wrap;rounded=0;" parent="1" vertex="1">
          <mxGeometry x="767" y="648" width="60" height="30" as="geometry" />
        </mxCell>
        <mxCell id="Ar0c8oPVUMQDSsYsdo-V-86" value="RF" style="text;html=1;align=center;verticalAlign=middle;whiteSpace=wrap;rounded=0;" parent="1" vertex="1">
          <mxGeometry x="767" y="685" width="60" height="30" as="geometry" />
        </mxCell>
        <mxCell id="Ar0c8oPVUMQDSsYsdo-V-97" value="" style="ellipse;whiteSpace=wrap;html=1;aspect=fixed;fillColor=#CC0000;" parent="1" vertex="1">
          <mxGeometry x="375" y="163" width="17" height="17" as="geometry" />
        </mxCell>
        <mxCell id="Ar0c8oPVUMQDSsYsdo-V-100" value="" style="whiteSpace=wrap;html=1;aspect=fixed;" parent="1" vertex="1">
          <mxGeometry x="457" y="149" width="31" height="31" as="geometry" />
        </mxCell>
        <mxCell id="Ar0c8oPVUMQDSsYsdo-V-101" value="" style="ellipse;whiteSpace=wrap;html=1;aspect=fixed;" parent="1" vertex="1">
          <mxGeometry x="461" y="153.5" width="23" height="23" as="geometry" />
        </mxCell>
        <mxCell id="Ar0c8oPVUMQDSsYsdo-V-104" value="Multi-Purpose&lt;div&gt;&lt;div&gt;&lt;div&gt;&amp;nbsp;Button&lt;/div&gt;&lt;/div&gt;&lt;/div&gt;" style="text;html=1;align=center;verticalAlign=middle;whiteSpace=wrap;rounded=0;" parent="1" vertex="1">
          <mxGeometry x="392" y="104" width="66" height="37" as="geometry" />
        </mxCell>
        <mxCell id="ZkNK1JgyBZcpypqjev8R-2" value="" style="whiteSpace=wrap;html=1;aspect=fixed;" parent="1" vertex="1">
          <mxGeometry x="409.5" y="149" width="31" height="31" as="geometry" />
        </mxCell>
        <mxCell id="ZkNK1JgyBZcpypqjev8R-3" value="" style="ellipse;whiteSpace=wrap;html=1;aspect=fixed;" parent="1" vertex="1">
          <mxGeometry x="413.5" y="153.5" width="23" height="23" as="geometry" />
        </mxCell>
        <mxCell id="ZkNK1JgyBZcpypqjev8R-4" style="edgeStyle=orthogonalEdgeStyle;rounded=0;orthogonalLoop=1;jettySize=auto;html=1;exitX=0.817;exitY=0.007;exitDx=0;exitDy=0;entryX=0.5;entryY=1;entryDx=0;entryDy=0;shape=flexArrow;exitPerimeter=0;fillColor=#007FFF;" parent="1" edge="1">
          <mxGeometry relative="1" as="geometry">
            <mxPoint x="424.52" y="210" as="sourcePoint" />
            <mxPoint x="424.52" y="180" as="targetPoint" />
          </mxGeometry>
        </mxCell>
        <mxCell id="ZkNK1JgyBZcpypqjev8R-5" value="Reset Button" style="text;html=1;align=center;verticalAlign=middle;whiteSpace=wrap;rounded=0;" parent="1" vertex="1">
          <mxGeometry x="440.5" y="119" width="67" height="22" as="geometry" />
        </mxCell>
        <mxCell id="ZkNK1JgyBZcpypqjev8R-6" value="" style="rounded=1;whiteSpace=wrap;html=1;" parent="1" vertex="1">
          <mxGeometry x="584" y="487" width="130" height="131" as="geometry" />
        </mxCell>
        <mxCell id="ZkNK1JgyBZcpypqjev8R-9" value="" style="rounded=0;whiteSpace=wrap;html=1;fillColor=#ffe6cc;strokeColor=#d79b00;" parent="1" vertex="1">
          <mxGeometry x="747" y="730" width="30" height="20" as="geometry" />
        </mxCell>
        <mxCell id="ZkNK1JgyBZcpypqjev8R-10" value="Wifi" style="text;html=1;align=center;verticalAlign=middle;whiteSpace=wrap;rounded=0;" parent="1" vertex="1">
          <mxGeometry x="767" y="725" width="60" height="30" as="geometry" />
        </mxCell>
        <mxCell id="ZkNK1JgyBZcpypqjev8R-12" value="End User&lt;div&gt;&lt;br&gt;&lt;div&gt;Operate device and utilize network&lt;/div&gt;&lt;div&gt;&amp;nbsp;via Locally hosted Web-App&lt;/div&gt;&lt;/div&gt;" style="rounded=1;whiteSpace=wrap;html=1;" parent="1" vertex="1">
          <mxGeometry x="587.5" y="490.25" width="123" height="124.5" as="geometry" />
        </mxCell>
      </root>
    </mxGraphModel>
  </diagram>
</mxfile>
